<?xml version="1.0" encoding="utf-8"?>
<!-- Generator: Adobe Illustrator 27.3.1, SVG Export Plug-In . SVG Version: 6.00 Build 0)  -->
<svg version="1.1"
	 id="Layer_1" xmlns:svg="http://www.w3.org/2000/svg" xmlns:sodipodi="http://sodipodi.sourceforge.net/DTD/sodipodi-0.dtd" xmlns:inkscape="http://www.inkscape.org/namespaces/inkscape"
	 xmlns="http://www.w3.org/2000/svg" xmlns:xlink="http://www.w3.org/1999/xlink" x="0px" y="0px" viewBox="0 0 720 162"
	 style="enable-background:new 0 0 720 162;" xml:space="preserve">
<style type="text/css">
	.st0{fill:#231F20;}
	.st1{fill:#00A5DF;}
	.st2{fill:#963CBD;}
	.st3{fill:#004EA8;}
	.st4{fill:#93C90F;}
	.st5{fill:#007749;}
	.st6{fill:#D00070;}
	.st7{fill:#890C58;}
	.st8{fill:#FF6720;}
	.st9{fill:#00778B;}
	.st10{fill:#AB2328;}
</style>
<sodipodi:namedview  bordercolor="#000000" borderopacity="0.25" id="namedview63" inkscape:current-layer="Layer_1" inkscape:cx="223.76334" inkscape:cy="82.515766" inkscape:deskcolor="#d1d1d1" inkscape:pagecheckerboard="0" inkscape:pageopacity="0" inkscape:showpageshadow="2" inkscape:window-height="790" inkscape:window-maximized="0" inkscape:window-width="1318" inkscape:window-x="0" inkscape:window-y="0" inkscape:zoom="1.0301062" pagecolor="#000000" showgrid="false">
	</sodipodi:namedview>
<g id="g18">
	<polygon id="polygon4" class="st0" points="178.4,125.3 197.6,27.3 228.8,98.1 261.2,27.3 278.5,125.3 264.4,125.3 255.6,70.3 
		228.6,129.4 202.4,70.2 192.6,125.3 	"/>
	<rect id="rect6" x="293.5" y="34.2" class="st0" width="13.8" height="91.1"/>
	<polygon id="polygon8" class="st0" points="327.1,125.3 327.1,28 388.3,96.7 388.3,34.2 402.1,34.2 402.1,130.8 340.9,62.2 
		340.9,125.3 	"/>
	<polygon id="polygon10" class="st0" points="476.7,47.1 434.4,47.1 434.4,71.9 465.9,71.9 465.9,84.8 434.4,84.8 434.4,112.3 
		476.7,112.3 476.7,125.3 420.7,125.3 420.7,34.2 476.7,34.2 	"/>
	<path id="path12" class="st0" d="M534.7,86.4l28.2,38.8h-16.8L520,88h-12.5v37.3h-13.8V34.2h26.2c12,0,20.7,2.3,26.1,6.8
		c5.9,5,8.8,11.7,8.8,19.9c0,6.4-1.8,12-5.5,16.6C545.6,82.2,540.8,85.1,534.7,86.4 M507.5,76H522c13,0,19.5-5,19.5-14.9
		c0-9.3-6.3-14-19-14h-15L507.5,76L507.5,76z"/>
	<polygon id="polygon14" class="st0" points="574.7,34.2 599.9,97.3 625.5,34.2 640.5,34.2 599.6,132.1 559.7,34.2 	"/>
	<path id="path16" class="st0" d="M687.9,103.1h-39l-10.2,22.1h-14.8L669,28.4l43.5,96.8h-15L687.9,103.1z M682.3,90.2l-13.5-31
		l-14.2,31H682.3z"/>
</g>
<g id="g60">
	<polygon id="polygon20" class="st1" points="84.9,125.2 74.7,101.7 61,109.3 54.7,141.5 66.9,150.3 71.2,126 84.9,156.8 98.6,126 
		102.9,150.3 115.1,141.5 108.8,109.3 95.1,101.7 	"/>
	<polygon id="polygon22" class="st1" points="98.2,94.8 105.8,94 103.5,82.5 	"/>
	<polygon id="polygon24" class="st1" points="64,94 71.6,94.8 66.3,82.5 	"/>
	<polygon id="polygon26" class="st2" points="161.3,101.3 136.2,78.8 160.7,82.2 156.1,67.9 123.5,63.9 112.1,74.6 131.2,91.5 
		105.8,94 108.8,109.3 137.4,125.2 149.6,116.4 127.8,104.8 	"/>
	<polygon id="polygon28" class="st2" points="95.1,101.7 98.2,94.8 84.9,96.1 	"/>
	<polygon id="polygon30" class="st2" points="106.4,69.5 108,62 96.4,60.6 	"/>
	<polygon id="polygon32" class="st3" points="98.2,94.8 95.1,101.7 108.8,109.3 105.8,94 	"/>
	<polygon id="polygon34" class="st4" points="113.5,37.1 108,62 123.5,63.9 147.5,41.6 142.9,27.3 125.1,44.4 132.1,11.5 103,28.4 
		113.8,6.1 98.7,6.1 84.9,35.8 91.5,50 	"/>
	<polygon id="polygon36" class="st4" points="73.4,60.6 84.9,53.9 78.3,50 	"/>
	<polygon id="polygon38" class="st4" points="103.5,82.5 112.1,74.6 106.4,69.5 	"/>
	<polygon id="polygon40" class="st5" points="106.4,69.5 112.1,74.6 123.5,63.9 108,62 	"/>
	<polygon id="polygon42" class="st6" points="91.5,50 84.9,53.9 96.4,60.6 	"/>
	<polygon id="polygon44" class="st6" points="63.4,69.5 57.7,74.6 66.3,82.5 	"/>
	<polygon id="polygon46" class="st6" points="56.3,37.1 78.3,50 84.9,35.8 71.1,6.1 56,6.1 66.8,28.4 37.7,11.5 44.7,44.4 
		26.9,27.3 22.3,41.6 46.3,63.9 61.8,62 	"/>
	<polygon id="polygon48" class="st7" points="84.9,53.9 91.5,50 84.9,35.8 78.3,50 	"/>
	<polygon id="polygon50" class="st8" points="71.6,94.8 74.7,101.7 84.9,96.1 	"/>
	<polygon id="polygon52" class="st8" points="73.4,60.6 73.4,60.6 73.4,60.6 61.8,62 63.4,69.5 	"/>
	<polygon id="polygon54" class="st8" points="38.6,91.5 57.7,74.6 46.3,63.9 13.7,67.9 9.1,82.2 33.6,78.8 8.5,101.3 42,104.8 
		20.2,116.4 32.4,125.2 61,109.3 64,94 	"/>
	<polygon id="polygon56" class="st9" points="71.6,94.8 64,94 61,109.3 74.7,101.7 	"/>
	<polygon id="polygon58" class="st10" points="63.4,69.5 61.8,62 46.3,63.9 57.7,74.6 	"/>
</g>
</svg>
